<svg id="Layer_35" enable-background="new 0 0 64 64" height="512" viewBox="0 0 64 64" width="512" xmlns="http://www.w3.org/2000/svg"><path d="m40 34c0 .14 0 .28-.01.41-.21 4.23-3.71 7.59-7.99 7.59s-7.78-3.36-7.99-7.59c-.01-.13-.01-.27-.01-.41 0-4.42 3.58-8 8-8s8 3.58 8 8zm-4 0c0-2.21-1.79-4-4-4s-4 1.79-4 4 1.79 4 4 4 4-1.79 4-4z" fill="#fcd770"/><path d="m40 35v5c0 1.57.9 2.93 2.22 3.58l-2.44 2.44-2.27-1.37c-.6.31-1.22.58-1.88.79l-.63 2.56h-6l-.63-2.56c-.66-.21-1.28-.48-1.88-.79l-2.27 1.37-2.44-2.44c1.32-.65 2.22-2.01 2.22-3.58v-5c0-.2-.01-.39-.01-.59h.02c.21 4.23 3.71 7.59 7.99 7.59s7.78-3.36 7.99-7.59h.02c0 .2-.01.39-.01.59z" fill="#ffc729"/><path d="m44.16 26.38c-2.39 1.9-3.97 4.78-4.15 8.03h-.02c.01-.13.01-.27.01-.41 0-4.42-3.58-8-8-8s-8 3.58-8 8c0 .14 0 .28.01.41h-.02c-.15-2.8-1.35-5.33-3.21-7.19-.3-.3-.61-.58-.94-.84l4.38-4.4 2.27 1.37c.6-.31 1.22-.58 1.88-.79l.63-2.56h6l.63 2.56c.66.21 1.28.48 1.88.79l2.27-1.37z" fill="#ffc729"/><path d="m37 11-6 4v-2h-8.05c.03-.32.05-.66.05-1 0-1.05-.16-2.05-.46-3h8.46v-2z" fill="#e6e9ed"/><path d="m41 54v4h-12v2l-6-4 6-4v2z" fill="#e6e9ed"/><path d="m51 42v17c0 1.66-1.34 3-3 3-.83 0-1.58-.34-2.12-.88s-.88-1.29-.88-2.12v-15-2z" fill="#cf9e76"/><path d="m57 44v15c0 .83-.34 1.58-.88 2.12s-1.29.88-2.12.88c-1.66 0-3-1.34-3-3v-17h6z" fill="#cf9e76"/><path d="m57 42h-6-6v2h-1c-.64 0-1.24-.15-1.78-.42-1.32-.65-2.22-2.01-2.22-3.58v-5c0-.2.01-.39.01-.59.18-3.25 1.76-6.13 4.15-8.03.94-.74 2-1.34 3.16-1.75.77-.27 1.58-.46 2.42-.55l-.74 7.92 2 2 2-2-.74-7.92c.84.09 1.65.28 2.42.55 1.56.55 2.96 1.45 4.1 2.59 1.99 1.99 3.22 4.74 3.22 7.78v5c0 2.21-1.79 4-4 4h-1z" fill="#e6e9ed"/><path d="m52.26 24.08.74 7.92-2 2-2-2 .74-7.92c.42-.06.84-.08 1.26-.08s.84.02 1.26.08z" fill="#b4dd7f"/><path d="m19 44v15c0 .83-.34 1.58-.88 2.12s-1.29.88-2.12.88c-1.66 0-3-1.34-3-3v-17h6z" fill="#838f9b"/><path d="m13 42v17c0 1.66-1.34 3-3 3-.83 0-1.58-.34-2.12-.88s-.88-1.29-.88-2.12v-15-2z" fill="#838f9b"/><path d="m21.78 43.58c-.53.27-1.14.42-1.78.42h-1v-2h-6-6v2h-1c-2.21 0-4-1.79-4-4v-5c0-4.31 2.47-8.04 6.08-9.84l4.92 6.84 4.92-6.84c.69.34 1.33.75 1.92 1.22.33.26.64.54.94.84 1.86 1.86 3.06 4.39 3.21 7.19 0 .2.01.39.01.59v5c0 1.57-.9 2.93-2.22 3.58z" fill="#b4dd7f"/><path d="m17.92 25.16-4.92 6.84-4.92-6.84c.4-.2.81-.38 1.24-.53 1.15-.41 2.39-.63 3.68-.63s2.53.22 3.68.63c.43.15.84.33 1.24.53z" fill="#f0d0b4"/><path d="m18 20-1.32 4.63c-1.15-.41-2.39-.63-3.68-.63s-2.53.22-3.68.63l-1.32-4.63h5z" fill="#aab2bd"/><path d="m52.26 24.08c-.42-.06-.84-.08-1.26-.08s-.84.02-1.26.08c-.84.09-1.65.28-2.42.55l-1.32-4.63h5 5l-1.32 4.63c-.77-.27-1.58-.46-2.42-.55z" fill="#aab2bd"/><path d="m22.95 13c-.33 3.17-2.25 5.43-4.95 7h-5-5c-2.98-1.73-5-4.3-5-8 0-5.52 4.48-9.99 10-9.99 4.47 0 8.26 2.94 9.54 6.99.3.95.46 1.95.46 3 0 .34-.02.68-.05 1z" fill="#ffeaa7"/><path d="m51 20h-5c-2.98-1.73-5-4.3-5-8 0-5.52 4.48-9.99 10-9.99s10 4.47 10 9.99c0 3.7-2.02 6.27-5 8z" fill="#ffeaa7"/><circle cx="13" cy="12" fill="#ffc729" r="2"/><circle cx="51" cy="12" fill="#ffc729" r="2"/><path d="m55.883 24.049.97-3.394c3.367-2.077 5.143-5.061 5.143-8.651 0-6.064-4.933-10.997-10.996-10.997s-10.996 4.933-10.996 10.997c0 3.591 1.776 6.574 5.143 8.651l.97 3.394c-.647.29-1.268.628-1.848 1.023l-4.336-4.356-2.467 1.494c-.33-.154-.662-.293-.995-.417l-.687-2.793h-7.567l-.687 2.794c-.332.123-.664.262-.995.417l-2.467-1.494-4.335 4.356c-.581-.395-1.201-.734-1.849-1.024l.97-3.394c2.719-1.677 4.38-3.953 4.927-6.655h6.219v2.869l8.803-5.869-8.803-5.869v2.869h-6.77c-1.605-4.087-5.58-6.993-10.23-6.993-6.063 0-10.996 4.933-10.996 10.997 0 3.591 1.776 6.574 5.143 8.651l.97 3.394c-4.188 1.875-7.117 6.074-7.117 10.951v5c0 2.757 2.243 5 5 5v14c0 2.206 1.794 4 4 4 1.2 0 2.266-.542 3-1.382.734.84 1.8 1.382 3 1.382 2.206 0 4-1.794 4-4v-14c.535 0 1.04-.107 1.524-.263l2.545 2.545 2.466-1.492c.33.154.662.293.995.416l.686 2.794h7.568l.687-2.794c.332-.123.664-.262.995-.416l2.466 1.492 2.545-2.545c.482.156.988.263 1.523.263v14c0 2.206 1.794 4 4 4 1.2 0 2.266-.542 3-1.382.734.84 1.8 1.382 3 1.382 2.206 0 4-1.794 4-4v-14c2.757 0 5-2.243 5-5v-5c0-4.877-2.929-9.076-7.117-10.951zm-13.879-12.045c0-4.961 4.036-8.997 8.996-8.997s8.996 4.036 8.996 8.997c0 2.928-1.45 5.277-4.289 6.996h-3.707v-4.184c1.161-.414 2-1.514 2-2.816 0-1.654-1.346-3-3-3s-3 1.346-3 3c0 1.302.839 2.402 2 2.816v4.184h-3.707c-2.839-1.719-4.289-4.069-4.289-6.996zm7.996-.004c0-.551.449-1 1-1s1 .449 1 1-.449 1-1 1-1-.449-1-1zm-2.674 9h7.349l-.684 2.393c-.958-.248-1.957-.393-2.991-.393s-2.033.145-2.991.393zm4.634 10.625-.96.961-.96-.961.618-6.608c.114-.004.226-.017.342-.017s.228.013.343.017zm-27.584-8.383 2.072 1.254.498-.258c.574-.297 1.155-.541 1.727-.722l.535-.17.576-2.346h4.433l.576 2.345.535.17c.575.182 1.155.425 1.727.722l.499.259 2.072-1.254 3.087 3.102c-1.099 1.053-1.996 2.311-2.633 3.713-1.467-2.989-4.533-5.057-8.08-5.057s-6.613 2.068-8.078 5.057c-.637-1.403-1.534-2.66-2.633-3.713zm7.624 17.758c-3.86 0-7-3.141-7-7 0-3.86 3.14-7 7-7s7 3.14 7 7c0 3.859-3.14 7-7 7zm-19-16c1.186 0 2.318.218 3.375.599l-3.375 4.689-3.375-4.69c1.057-.38 2.189-.598 3.375-.598zm19-15v-1.131l3.197 2.131-3.197 2.131v-1.131h-8.004c0-.684-.071-1.35-.192-2zm-27.996 2.004c0-4.961 4.036-8.997 8.996-8.997s8.996 4.036 8.996 8.997c0 2.928-1.45 5.277-4.289 6.996h-3.707v-4.184c1.161-.414 2-1.514 2-2.816 0-1.654-1.346-3-3-3s-3 1.346-3 3c0 1.302.839 2.402 2 2.816v4.184h-3.707c-2.839-1.719-4.289-4.069-4.289-6.996zm7.996-.004c0-.551.449-1 1-1s1 .449 1 1-.449 1-1 1-1-.449-1-1zm-2.674 9h7.349l-.684 2.393c-.958-.248-1.957-.393-2.991-.393s-2.033.145-2.991.393zm.674 40c-1.103 0-2-.897-2-2v-16h4v16c0 1.103-.897 2-2 2zm6 0c-1.103 0-2-.897-2-2v-16h4v16c0 1.103-.897 2-2 2zm2-30v10h-10v-10h-2v12c-1.654 0-3-1.346-3-3v-5c0-3.606 1.925-6.763 4.795-8.522l5.205 7.234 5.205-7.234c2.87 1.759 4.795 4.916 4.795 8.522v5c0 1.654-1.346 3-3 3v-12zm21.625 13.759-2.073-1.255-.499.259c-.574.298-1.154.541-1.725.722l-.536.169-.576 2.346h-4.432l-.577-2.345-.534-.17c-.573-.182-1.154-.425-1.727-.723l-.499-.259-2.073 1.255-1.052-1.051c1.022-.915 1.678-2.23 1.678-3.707v-.356c1.651 2.044 4.174 3.356 7 3.356s5.349-1.312 7-3.356v.356c0 1.477.656 2.792 1.677 3.708zm8.375 16.241c-1.103 0-2-.897-2-2v-16h4v16c0 1.103-.897 2-2 2zm6 0c-1.103 0-2-.897-2-2v-16h4v16c0 1.103-.897 2-2 2zm7-21c0 1.654-1.346 3-3 3v-12h-2v10h-10v-10h-2v12c-1.654 0-3-1.346-3-3v-5c0-4.694 3.254-8.631 7.622-9.702l-.662 7.077 3.04 3.039 3.04-3.039-.662-7.077c4.368 1.071 7.622 5.008 7.622 9.702z"/><path d="m30 50.132-8.803 5.868 8.803 5.868v-2.868h12v-6h-12zm10 4.868v2h-12v1.132l-3.197-2.132 3.197-2.132v1.132z"/><path d="m32 29c-2.757 0-5 2.243-5 5s2.243 5 5 5 5-2.243 5-5-2.243-5-5-5zm0 8c-1.654 0-3-1.346-3-3s1.346-3 3-3 3 1.346 3 3-1.346 3-3 3z"/></svg>