<?xml version="1.0" standalone="no"?><svg xmlns="http://www.w3.org/2000/svg" viewBox="0 0 1440 320"><path fill="#1d7878" fill-opacity="1" d="M0,128L18.5,122.7C36.9,117,74,107,111,96C147.7,85,185,75,222,101.3C258.5,128,295,192,332,208C369.2,224,406,192,443,170.7C480,149,517,139,554,138.7C590.8,139,628,149,665,176C701.5,203,738,245,775,250.7C812.3,256,849,224,886,202.7C923.1,181,960,171,997,138.7C1033.8,107,1071,53,1108,53.3C1144.6,53,1182,107,1218,117.3C1255.4,128,1292,96,1329,90.7C1366.2,85,1403,107,1422,117.3L1440,128L1440,320L1421.5,320C1403.1,320,1366,320,1329,320C1292.3,320,1255,320,1218,320C1181.5,320,1145,320,1108,320C1070.8,320,1034,320,997,320C960,320,923,320,886,320C849.2,320,812,320,775,320C738.5,320,702,320,665,320C627.7,320,591,320,554,320C516.9,320,480,320,443,320C406.2,320,369,320,332,320C295.4,320,258,320,222,320C184.6,320,148,320,111,320C73.8,320,37,320,18,320L0,320Z"></path></svg>